<svg width="116" height="144" viewBox="0 0 116 144" fill="none" xmlns="http://www.w3.org/2000/svg">
<g clip-path="url(#clip0_47_3213)" filter="url(#filter0_d_47_3213)">
<path d="M82.5 40.2857C82.9141 40.2857 83.2676 40.4531 83.5605 40.7879C83.8535 41.1228 84 41.5268 84 42C84 42.4732 83.8535 42.8772 83.5605 43.2121C83.2676 43.5469 82.9141 43.7143 82.5 43.7143H82.3242L80.9766 52.5804C80.9141 52.9911 80.7422 53.3304 80.4609 53.5982C80.1797 53.8661 79.8594 54 79.5 54H64.5C64.1406 54 63.8203 53.8661 63.5391 53.5982C63.2578 53.3304 63.0859 52.9911 63.0234 52.5804L61.6758 43.7143H61.5C61.0859 43.7143 60.7324 43.5469 60.4395 43.2121C60.1465 42.8772 60 42.4732 60 42C60 41.5268 60.1465 41.1228 60.4395 40.7879C60.7324 40.4531 61.0859 40.2857 61.5 40.2857H82.5ZM65.6836 51C65.8867 50.9821 66.0566 50.8817 66.1934 50.6987C66.3301 50.5156 66.3906 50.308 66.375 50.0759L66 44.5045C65.9844 44.2723 65.8965 44.0781 65.7363 43.9219C65.5762 43.7656 65.3945 43.6964 65.1914 43.7143C64.9883 43.7321 64.8184 43.8326 64.6816 44.0156C64.5449 44.1987 64.4844 44.4062 64.5 44.6384L64.875 50.2098C64.8906 50.433 64.9707 50.6205 65.1152 50.7723C65.2598 50.9241 65.4297 51 65.625 51H65.6836ZM70.5 50.1429V44.5714C70.5 44.3393 70.4258 44.1384 70.2773 43.9688C70.1289 43.7991 69.9531 43.7143 69.75 43.7143C69.5469 43.7143 69.3711 43.7991 69.2227 43.9688C69.0742 44.1384 69 44.3393 69 44.5714V50.1429C69 50.375 69.0742 50.5759 69.2227 50.7455C69.3711 50.9152 69.5469 51 69.75 51C69.9531 51 70.1289 50.9152 70.2773 50.7455C70.4258 50.5759 70.5 50.375 70.5 50.1429ZM75 50.1429V44.5714C75 44.3393 74.9258 44.1384 74.7773 43.9688C74.6289 43.7991 74.4531 43.7143 74.25 43.7143C74.0469 43.7143 73.8711 43.7991 73.7227 43.9688C73.5742 44.1384 73.5 44.3393 73.5 44.5714V50.1429C73.5 50.375 73.5742 50.5759 73.7227 50.7455C73.8711 50.9152 74.0469 51 74.25 51C74.4531 51 74.6289 50.9152 74.7773 50.7455C74.9258 50.5759 75 50.375 75 50.1429ZM79.125 50.2098L79.5 44.6384C79.5156 44.4062 79.4551 44.1987 79.3184 44.0156C79.1816 43.8326 79.0117 43.7321 78.8086 43.7143C78.6055 43.6964 78.4238 43.7656 78.2637 43.9219C78.1035 44.0781 78.0156 44.2723 78 44.5045L77.625 50.0759C77.6094 50.308 77.6699 50.5156 77.8066 50.6987C77.9434 50.8817 78.1133 50.9821 78.3164 51H78.375C78.5703 51 78.7402 50.9241 78.8848 50.7723C79.0293 50.6205 79.1094 50.433 79.125 50.2098ZM65.5781 33.9107L64.4883 39.4286H62.9414L64.125 33.5223C64.2734 32.7366 64.6211 32.096 65.168 31.6004C65.7148 31.1049 66.3398 30.8571 67.043 30.8571H69C69 30.625 69.0742 30.4241 69.2227 30.2545C69.3711 30.0848 69.5469 30 69.75 30H74.25C74.4531 30 74.6289 30.0848 74.7773 30.2545C74.9258 30.4241 75 30.625 75 30.8571H76.957C77.6602 30.8571 78.2852 31.1049 78.832 31.6004C79.3789 32.096 79.7266 32.7366 79.875 33.5223L81.0586 39.4286H79.5117L78.4219 33.9107C78.3359 33.5179 78.1582 33.1964 77.8887 32.9464C77.6191 32.6964 77.3086 32.5714 76.957 32.5714H75C75 32.8036 74.9258 33.0045 74.7773 33.1741C74.6289 33.3438 74.4531 33.4286 74.25 33.4286H69.75C69.5469 33.4286 69.3711 33.3438 69.2227 33.1741C69.0742 33.0045 69 32.8036 69 32.5714H67.043C66.6914 32.5714 66.3809 32.6964 66.1113 32.9464C65.8418 33.1964 65.6641 33.5179 65.5781 33.9107Z" fill="#FFA451"/>
</g>
<path d="M51.52 67.76C51.49 67.9 51.55 68 51.7 68H52.1C52.18 68 52.27 67.93 52.28 67.86L53.15 62.71C53.16 62.71 53.18 62.71 53.19 62.71L55.05 67.99C55.07 68.05 55.16 68.1 55.22 68.1H55.4C55.46 68.1 55.55 68.05 55.57 67.99L57.41 62.71C57.42 62.71 57.44 62.71 57.45 62.71L58.34 67.86C58.36 67.93 58.44 68 58.52 68H58.92C59.07 68 59.13 67.9 59.1 67.76L57.81 61.04C57.79 60.96 57.71 60.9 57.63 60.9H57.47C57.4 60.9 57.32 60.95 57.3 61.01L55.35 66.52C55.33 66.52 55.32 66.52 55.3 66.52L53.32 61.01C53.3 60.95 53.22 60.9 53.15 60.9H52.99C52.91 60.9 52.83 60.96 52.81 61.04L51.52 67.76ZM61.457 67.99L60.177 70.75C60.107 70.89 60.187 71 60.337 71H60.707C60.777 71 60.847 70.94 60.877 70.88L63.947 64.23C64.017 64.1 63.947 64 63.797 64H63.417C63.347 64 63.277 64.05 63.247 64.11L61.847 67.17H61.837L60.357 64.11C60.327 64.05 60.267 64 60.187 64H59.747C59.597 64 59.537 64.09 59.597 64.22L61.457 67.99ZM67.052 67.81C67.052 67.91 67.142 68 67.242 68H67.452C67.542 68 67.602 67.93 67.622 67.84L67.682 67.57C67.682 67.57 68.162 68.1 68.912 68.1C69.932 68.1 70.732 67.14 70.732 65.99C70.732 64.82 70.012 63.9 68.812 63.9C68.152 63.9 67.742 64.16 67.742 64.16V61.19C67.742 61.09 67.652 61 67.552 61H67.242C67.142 61 67.052 61.09 67.052 61.19V67.81ZM67.752 66.81V64.81C67.752 64.81 68.172 64.57 68.722 64.57C69.592 64.57 70.032 65.2 70.032 66C70.032 66.78 69.572 67.47 68.842 67.47C68.122 67.47 67.752 66.81 67.752 66.81ZM71.5763 66.79C71.5763 67.59 72.1063 68.1 72.8063 68.1C73.4263 68.1 73.8363 67.79 74.0463 67.58L74.1263 67.85C74.1563 67.94 74.1863 68 74.2963 68H74.4863C74.5863 68 74.6763 67.91 74.6763 67.81V65.59C74.6763 64.42 74.4263 63.9 73.4063 63.9C72.6563 63.9 72.0763 64.13 72.0163 64.16C71.9263 64.2 71.8663 64.26 71.9063 64.38L71.9863 64.63C72.0163 64.72 72.0763 64.77 72.1763 64.73C72.3563 64.66 72.8263 64.51 73.3763 64.51C73.9463 64.51 74.0363 64.85 74.0263 65.59C74.0263 65.59 73.6063 65.46 73.1763 65.46C72.1463 65.46 71.5763 66.03 71.5763 66.79ZM72.2163 66.79C72.2163 66.27 72.6163 65.99 73.1763 65.99C73.6163 65.99 73.8963 66.08 74.0163 66.15V66.94C73.8463 67.19 73.4163 67.5 72.9163 67.5C72.4863 67.5 72.2163 67.19 72.2163 66.79ZM75.8755 67.65C76.0955 67.82 76.5055 68.1 77.1755 68.1C77.9955 68.1 78.5555 67.55 78.5555 66.97C78.5555 66.25 77.9355 65.94 77.2455 65.61C76.8355 65.41 76.5055 65.26 76.5055 64.93C76.5055 64.76 76.6255 64.53 77.0755 64.53C77.4455 64.53 77.8755 64.77 77.8755 64.77C77.9655 64.82 78.1055 64.79 78.1655 64.68L78.2455 64.52C78.3055 64.41 78.2755 64.27 78.1855 64.21C77.9955 64.08 77.5955 63.9 77.0755 63.9C76.1455 63.9 75.8055 64.52 75.8055 64.94C75.8055 65.62 76.4155 65.97 76.9455 66.23C77.5255 66.52 77.8255 66.68 77.8255 67.03C77.8255 67.3 77.5855 67.51 77.1755 67.51C76.6655 67.51 76.2355 67.16 76.2355 67.16C76.1255 67.09 76.0155 67.11 75.9655 67.19C75.9355 67.24 75.8655 67.38 75.8255 67.44C75.7955 67.51 75.8255 67.61 75.8755 67.65ZM79.6399 67.81C79.6399 67.91 79.7299 68 79.8299 68H80.1399C80.2399 68 80.3299 67.91 80.3299 67.81V65.99L82.3599 67.92C82.3999 67.95 82.4699 68 82.5599 68H83.1099C83.2799 68 83.2899 67.82 83.2099 67.75L80.9999 65.77L82.8999 64.25C82.9699 64.19 82.9799 64 82.8099 64H82.2699C82.1899 64 82.1099 64.05 82.0299 64.12L80.3299 65.52V61.19C80.3299 61.09 80.2399 61 80.1399 61H79.8299C79.7299 61 79.6399 61.09 79.6399 61.19V67.81ZM83.7442 66C83.7442 67.15 84.4942 68.1 85.7042 68.1C86.3942 68.1 86.9342 67.83 87.1742 67.64C87.3242 67.53 87.2842 67.47 87.2142 67.38C87.1542 67.3 87.1042 67.23 87.0442 67.15C86.9642 67.04 86.9042 67.09 86.7642 67.17C86.5342 67.31 86.1942 67.47 85.7742 67.47C85.0642 67.47 84.4742 66.84 84.4342 66.17H87.3142C87.4042 66.17 87.4842 66.1 87.4942 66C87.5042 65.93 87.5142 65.8 87.5142 65.73C87.5142 64.68 86.7542 63.9 85.7042 63.9C84.4942 63.9 83.7442 64.87 83.7442 66ZM84.4442 65.61C84.5142 64.99 85.0342 64.51 85.7042 64.51C86.3142 64.51 86.7942 65.03 86.8242 65.61H84.4442ZM88.8645 67C88.8645 67.62 88.9845 68.1 89.7845 68.1C90.2545 68.1 90.7945 67.85 90.9345 67.76C91.0445 67.69 91.0745 67.63 91.0045 67.51L90.8545 67.26C90.8045 67.18 90.7645 67.12 90.6145 67.2C90.4845 67.27 90.1345 67.42 89.8845 67.42C89.6545 67.42 89.5545 67.34 89.5545 66.94V64.6H90.7145C90.8245 64.6 90.9045 64.51 90.9045 64.41V64.19C90.9045 64.08 90.8245 64 90.7145 64H89.5545V62.87C89.5545 62.77 89.4745 62.68 89.3745 62.68L89.0545 62.7C88.9545 62.7 88.8645 62.79 88.8645 62.89V64H88.3545C88.2445 64 88.1645 64.08 88.1645 64.19V64.41C88.1645 64.51 88.2445 64.6 88.3545 64.6H88.8645V67Z" fill="#27214D"/>
<defs>
<filter id="filter0_d_47_3213" x="0" y="0" width="144" height="144" filterUnits="userSpaceOnUse" color-interpolation-filters="sRGB">
<feFlood flood-opacity="0" result="BackgroundImageFix"/>
<feColorMatrix in="SourceAlpha" type="matrix" values="0 0 0 0 0 0 0 0 0 0 0 0 0 0 0 0 0 0 127 0" result="hardAlpha"/>
<feOffset dy="30"/>
<feGaussianBlur stdDeviation="30"/>
<feColorMatrix type="matrix" values="0 0 0 0 0 0 0 0 0 0 0 0 0 0 0 0 0 0 0.2 0"/>
<feBlend mode="normal" in2="BackgroundImageFix" result="effect1_dropShadow_47_3213"/>
<feBlend mode="normal" in="SourceGraphic" in2="effect1_dropShadow_47_3213" result="shape"/>
</filter>
<clipPath id="clip0_47_3213">
<rect width="24" height="24" fill="white" transform="translate(60 30)"/>
</clipPath>
</defs>
</svg>
